<?xml version="1.0"?><svg fill="#000000" xmlns="http://www.w3.org/2000/svg"  viewBox="0 0 24 24" width="24px" height="24px">    <path d="M 12 3 C 9 6 9 10 9 10 C 9 10 7 8 4 8 C 4 11 5 13 5 13 L 2 13 C 2 15 3 16 4 17 L 9 17 L 12 14 L 15 17 L 20 17 C 21 16 22 15 22 13 L 19 13 C 19 13 20 11 20 8 C 17 8 15 10 15 10 C 15 10 15 6 12 3 z M 11.998047 6.3632812 C 12.962047 8.2262812 13 9.985 13 10 L 13 12.171875 L 12 11.171875 L 11 12.171875 L 11 10 C 11 9.977 11.035047 8.2242813 11.998047 6.3632812 z M 6.2871094 10.554688 C 7.0961094 10.950688 7.5839375 11.413063 7.5859375 11.414062 L 9.671875 13.5 L 8.2148438 14.957031 L 6.7890625 12.105469 C 6.7840625 12.095469 6.5111094 11.525687 6.2871094 10.554688 z M 17.708984 10.558594 C 17.484984 11.528594 17.211937 12.103469 17.210938 12.105469 L 15.785156 14.957031 L 14.328125 13.5 L 16.414062 11.414062 C 16.422063 11.406063 16.908984 10.950594 17.708984 10.558594 z M 4 19 L 4 21 L 20 21 L 20 19 L 4 19 z"/></svg>